<svg width="192" height="50" viewBox="0 0 192 50" fill="none" xmlns="http://www.w3.org/2000/svg">
<g id="Card Article/LOGO DBPC2023" clip-path="url(#clip0_3264_1702)">
<g id="Layer 1">
<g id="Group">
<g id="Group_2">
<g id="Group_3">
<g id="Group_4">
<path id="Vector" d="M72.1972 9.46798C71.6598 9.87 70.9837 10.0722 70.1714 10.0722C69.5975 10.0722 69.0989 9.98074 68.6782 9.79778C68.2575 9.61483 67.9024 9.35724 67.6154 9.02744C67.3285 8.69764 67.1145 8.30284 66.971 7.84545C66.8275 7.38806 66.7472 6.88734 66.7278 6.3481C66.7278 5.80886 66.8105 5.31295 66.9783 4.86519C67.1461 4.41743 67.3795 4.02744 67.6787 3.69764C67.9802 3.36784 68.3353 3.11025 68.7487 2.9273C69.1597 2.74434 69.6121 2.65286 70.1033 2.65286C70.7429 2.65286 71.2707 2.78286 71.6938 3.04526C72.1146 3.30525 72.4526 3.63746 72.7079 4.04189C72.9633 4.44391 73.1384 4.88445 73.2357 5.3611C73.333 5.83774 73.3719 6.29032 73.3548 6.72123H67.9827C67.9729 7.03177 68.0094 7.32787 68.0945 7.60712C68.1772 7.88637 68.311 8.13433 68.4982 8.34858C68.6831 8.56283 68.919 8.73616 69.2059 8.86374C69.4929 8.99133 69.8309 9.05633 70.2201 9.05633C70.7186 9.05633 71.1296 8.94078 71.4482 8.71208C71.7668 8.48339 71.9784 8.13433 72.0805 7.66731H73.2454C73.0873 8.46413 72.742 9.06355 72.2045 9.46798H72.1972ZM71.9127 4.90611C71.8057 4.65816 71.6622 4.44631 71.4822 4.26817C71.3023 4.09003 71.0883 3.948 70.8426 3.84208C70.597 3.73616 70.3271 3.68319 70.0304 3.68319C69.7337 3.68319 69.4491 3.73616 69.2035 3.84208C68.9579 3.948 68.7487 4.09244 68.5712 4.2754C68.3961 4.45835 68.2575 4.6726 68.1553 4.91333C68.0532 5.15647 67.9924 5.41406 67.9754 5.68849H72.0975C72.0781 5.41406 72.0173 5.15166 71.9103 4.90611H71.9127Z" fill="white"/>
<g id="Clip path group">
<mask id="mask0_3264_1702" style="mask-type:luminance" maskUnits="userSpaceOnUse" x="66" y="2" width="8" height="9">
<g id="clippath">
<path id="Vector_2" d="M72.1972 9.46798C71.6598 9.87 70.9837 10.0722 70.1714 10.0722C69.5975 10.0722 69.0989 9.98074 68.6782 9.79778C68.2575 9.61483 67.9024 9.35724 67.6154 9.02744C67.3285 8.69764 67.1145 8.30284 66.971 7.84545C66.8275 7.38806 66.7472 6.88734 66.7278 6.3481C66.7278 5.80886 66.8105 5.31295 66.9783 4.86519C67.1461 4.41743 67.3795 4.02744 67.6787 3.69764C67.9802 3.36784 68.3353 3.11025 68.7487 2.9273C69.1597 2.74434 69.6121 2.65286 70.1033 2.65286C70.7429 2.65286 71.2707 2.78286 71.6938 3.04526C72.1146 3.30525 72.4526 3.63746 72.7079 4.04189C72.9633 4.44391 73.1384 4.88445 73.2357 5.3611C73.333 5.83774 73.3719 6.29032 73.3548 6.72123H67.9827C67.9729 7.03177 68.0094 7.32787 68.0945 7.60712C68.1772 7.88637 68.311 8.13433 68.4982 8.34858C68.6831 8.56283 68.919 8.73616 69.2059 8.86374C69.4929 8.99133 69.8309 9.05633 70.2201 9.05633C70.7186 9.05633 71.1296 8.94078 71.4482 8.71208C71.7668 8.48339 71.9784 8.13433 72.0805 7.66731H73.2454C73.0873 8.46413 72.742 9.06355 72.2045 9.46798H72.1972ZM71.9127 4.90611C71.8057 4.65816 71.6622 4.44631 71.4822 4.26817C71.3023 4.09003 71.0883 3.948 70.8426 3.84208C70.597 3.73616 70.3271 3.68319 70.0304 3.68319C69.7337 3.68319 69.4491 3.73616 69.2035 3.84208C68.9579 3.948 68.7487 4.09244 68.5712 4.2754C68.3961 4.45835 68.2575 4.6726 68.1553 4.91333C68.0532 5.15647 67.9924 5.41406 67.9754 5.68849H72.0975C72.0781 5.41406 72.0173 5.15166 71.9103 4.90611H71.9127Z" fill="white"/>
</g>
</mask>
<g mask="url(#mask0_3264_1702)">
<g id="Group_5">
<path id="Vector_3" d="M73.6759 5.5657H67.5522V6.98843H73.6759V5.5657Z" fill="white"/>
<path id="Vector_4" d="M68.9652 10.3876L72.9852 10.3274L73.5129 7.53009H72.0173L71.5795 7.92248H68.508L68.9652 10.3876Z" fill="white"/>
<path id="Vector_5" d="M71.8957 10.3563C71.8957 10.3563 65.7988 8.56041 69.3008 3.72651C70.5022 2.06787 69.2278 2.29656 68.1237 3.18246C66.4116 4.55704 66.3046 6.33845 66.3046 6.33845L66.9102 8.88299L68.8339 10.3779L71.8957 10.3539V10.3563Z" fill="white"/>
<path id="Vector_6" opacity="0.15" d="M69.8699 8.44485C69.8699 8.44485 68.2332 7.71543 68.238 7.78765C68.3232 8.84687 70.1763 10.26 71.9127 8.12227C72.0222 7.98746 71.2902 7.8045 71.2902 7.8045C71.2902 7.8045 70.4049 7.8045 69.8699 8.44485Z" fill="white"/>
<path id="Vector_7" d="M71.3314 4.61964C71.3314 4.61964 65.5556 2.46027 67.5716 9.92055C67.5716 9.92055 64.6947 4.73037 67.7176 3.05488C70.7794 1.35531 73.1919 3.12469 73.1919 3.12469L71.329 4.61964H71.3314Z" fill="white"/>
<path id="Vector_8" d="M71.5236 4.48001C71.3193 4.25372 70.7454 3.97447 70.4511 3.89021C69.6923 3.66633 68.2429 3.73855 67.2895 3.90225C66.5113 4.03706 67.6884 2.66489 68.5979 2.50119C69.8188 2.28213 71.847 2.57582 71.847 2.57582L73.7269 3.95281L73.6394 6.92344C73.6394 6.92344 72.3748 6.4179 71.9175 5.30813C71.83 5.09628 71.6768 4.65333 71.5236 4.48242V4.48001Z" fill="white"/>
<path id="Vector_9" opacity="0.1" d="M73.3816 5.67885C72.7931 4.07077 71.2074 1.87048 66.6548 3.2932C66.453 3.35579 67.6616 2.50119 67.8027 2.47471C70.2663 2.01732 73.1335 2.32787 73.7877 5.51516L73.3816 5.67885Z" fill="white"/>
<path id="Vector_10" d="M68.9652 7.08232C68.5007 7.16176 67.99 7.48916 67.9438 6.82955C67.8976 6.16995 68.0143 5.40683 68.1286 5.36109C68.2453 5.31535 68.8363 5.39479 69.2303 5.39479C69.8772 5.39479 69.4516 6.36975 71.6768 6.9451C72.421 7.13769 68.9628 7.08232 68.9628 7.08232H68.9652Z" fill="white"/>
</g>
</g>
</g>
</g>
<g id="Group_6">
<path id="Vector_11" d="M54.0671 2.81656V3.94318H54.0938C54.5851 3.08136 55.3609 2.65045 56.4261 2.65045C56.8979 2.65045 57.2919 2.71545 57.6056 2.84304C57.9193 2.97063 58.1747 3.15117 58.3692 3.37987C58.5638 3.60856 58.7 3.88059 58.7778 4.19836C58.8556 4.51372 58.8969 4.86518 58.8969 5.25036V9.92296H57.7174V5.11314C57.7174 4.6726 57.5886 4.32595 57.3283 4.06836C57.0681 3.81319 56.7131 3.68319 56.2583 3.68319C55.8983 3.68319 55.5846 3.73856 55.322 3.8493C55.0593 3.96003 54.838 4.1141 54.6629 4.31632C54.4878 4.51853 54.3541 4.75445 54.2665 5.02407C54.179 5.29369 54.1352 5.58979 54.1352 5.90996V9.92296H52.9557V2.81656H54.0671Z" fill="white"/>
<g id="Clip path group_2">
<mask id="mask1_3264_1702" style="mask-type:luminance" maskUnits="userSpaceOnUse" x="52" y="2" width="7" height="8">
<g id="clippath-1">
<path id="Vector_12" d="M54.0671 2.81656V3.94318H54.0938C54.5851 3.08136 55.3609 2.65045 56.4261 2.65045C56.8979 2.65045 57.2919 2.71545 57.6056 2.84304C57.9193 2.97063 58.1747 3.15117 58.3692 3.37987C58.5638 3.60856 58.7 3.88059 58.7778 4.19836C58.8556 4.51372 58.8969 4.86518 58.8969 5.25036V9.92296H57.7174V5.11314C57.7174 4.6726 57.5886 4.32595 57.3283 4.06836C57.0681 3.81319 56.7131 3.68319 56.2583 3.68319C55.8983 3.68319 55.5846 3.73856 55.322 3.8493C55.0593 3.96003 54.838 4.1141 54.6629 4.31632C54.4878 4.51853 54.3541 4.75445 54.2665 5.02407C54.179 5.29369 54.1352 5.58979 54.1352 5.90996V9.92296H52.9557V2.81656H54.0671Z" fill="white"/>
</g>
</mask>
<g mask="url(#mask1_3264_1702)">
<g id="Group_7">
<path id="Vector_13" d="M57.501 10.0963L59.2228 10.0843V4.12373L57.2456 3.55801L57.501 10.0963Z" fill="white"/>
<path id="Vector_14" d="M54.5437 10.1348C54.5437 10.1348 55.1541 8.14395 57.1167 2.36157C57.5861 0.974958 52.6201 2.72749 52.6201 2.72749L52.71 10.1107L54.5462 10.1348H54.5437Z" fill="white"/>
<path id="Vector_15" d="M56.5719 4.04187C57.0948 4.04669 52.9143 2.72988 53.8044 10.3731C53.8044 10.3731 53.228 11.0062 52.7076 10.1083C52.6784 10.0578 52.6881 3.02117 52.727 2.9971C52.9119 2.88155 53.121 2.77803 53.3545 2.68896C57.8293 0.955691 59.7991 3.65429 59.7991 3.65429L56.5719 4.04428V4.04187Z" fill="white"/>
<path id="Vector_16" d="M55.1274 4.48483C55.1274 4.48483 54.2859 5.21665 53.802 4.20798C52.9508 2.43138 56.6109 2.11362 56.6109 2.11362L59.2933 2.76359L59.3857 9.68704C59.3857 9.68704 58.0627 5.54405 57.9363 5.17091C57.3259 3.36783 55.1079 4.07077 55.1274 4.48723V4.48483Z" fill="white"/>
<path id="Vector_17" opacity="0.1" d="M59.1912 4.26816C58.1625 3.40152 55.8059 2.0462 52.8098 4.35482C52.7879 4.37167 52.7782 2.6697 52.8098 2.66248C54.6119 2.15694 57.1605 2.0125 59.072 2.8671C59.111 2.88395 59.1183 2.93691 59.1401 2.97302C59.3785 3.35819 59.2204 4.28982 59.1912 4.26575V4.26816Z" fill="white"/>
</g>
</g>
</g>
</g>
<g id="Group_8">
<path id="Vector_18" d="M52.2626 9.89408C52.0583 10.012 51.7762 10.0722 51.4163 10.0722C51.1098 10.0722 50.8691 9.98796 50.6867 9.81704C50.5067 9.64853 50.4167 9.37169 50.4167 8.98652C50.0933 9.37169 49.7163 9.64853 49.2859 9.81704C48.8554 9.98555 48.3909 10.0722 47.8899 10.0722C47.5665 10.0722 47.2576 10.0361 46.9658 9.96148C46.674 9.88926 46.421 9.77371 46.2095 9.61723C45.9954 9.46076 45.8276 9.25854 45.7036 9.00578C45.5796 8.75301 45.5164 8.44969 45.5164 8.09099C45.5164 7.68897 45.5869 7.35917 45.7255 7.10159C45.8641 6.844 46.0465 6.63697 46.2727 6.47568C46.4989 6.31439 46.7591 6.19403 47.0509 6.11218C47.3428 6.03033 47.6419 5.96052 47.9459 5.90515C48.2693 5.84015 48.5782 5.79201 48.87 5.76071C49.1618 5.72942 49.4172 5.68368 49.6409 5.62349C49.8622 5.56331 50.0398 5.47665 50.1687 5.3635C50.2976 5.24795 50.3632 5.08185 50.3632 4.86278C50.3632 4.60761 50.3146 4.40058 50.2173 4.2441C50.12 4.08762 49.996 3.96967 49.8428 3.88782C49.6896 3.80597 49.5193 3.7506 49.3297 3.72171C49.14 3.69523 48.9527 3.68079 48.7679 3.68079C48.2693 3.68079 47.851 3.77467 47.5179 3.96244C47.1847 4.15021 47.0047 4.50409 46.9755 5.02648H45.796C45.8155 4.58594 45.9079 4.21521 46.0733 3.9143C46.2411 3.61098 46.4624 3.36784 46.7396 3.18007C47.0169 2.99229 47.333 2.85748 47.6905 2.77564C48.0456 2.69379 48.4274 2.65286 48.836 2.65286C49.1594 2.65286 49.4804 2.67694 49.8015 2.72267C50.12 2.76841 50.4094 2.8623 50.6697 3.00433C50.9274 3.14636 51.1366 3.34376 51.2947 3.60135C51.4527 3.85652 51.5306 4.19114 51.5306 4.60279V8.24988C51.5306 8.52431 51.5476 8.72412 51.5792 8.85411C51.6108 8.9817 51.7203 9.0467 51.9051 9.0467C52.0072 9.0467 52.1264 9.02744 52.265 8.99133V9.89889L52.2626 9.89408ZM50.3462 6.2518C50.1979 6.36013 50.0033 6.44198 49.7625 6.49013C49.5218 6.54068 49.2689 6.58161 49.0062 6.6129C48.7436 6.6442 48.476 6.68031 48.2085 6.72123C47.941 6.76216 47.7002 6.82715 47.4862 6.91863C47.2722 7.01011 47.0996 7.1401 46.9658 7.30862C46.832 7.47713 46.7639 7.70823 46.7639 7.99952C46.7639 8.1921 46.8029 8.35339 46.8831 8.4858C46.9609 8.6182 47.0631 8.72412 47.1895 8.80838C47.3136 8.89022 47.4595 8.95041 47.6273 8.98652C47.7927 9.02263 47.9702 9.04189 48.155 9.04189C48.5441 9.04189 48.8773 8.98892 49.1546 8.88541C49.4318 8.77949 49.658 8.64949 49.8355 8.4882C50.0106 8.32932 50.1419 8.15599 50.2246 7.96822C50.3073 7.78045 50.3486 7.60472 50.3486 7.44102V6.2518H50.3462Z" fill="white"/>
<g id="Clip path group_3">
<mask id="mask2_3264_1702" style="mask-type:luminance" maskUnits="userSpaceOnUse" x="45" y="2" width="8" height="9">
<g id="clippath-2">
<path id="Vector_19" d="M52.2626 9.89408C52.0583 10.012 51.7762 10.0722 51.4163 10.0722C51.1098 10.0722 50.8691 9.98796 50.6867 9.81704C50.5067 9.64853 50.4167 9.37169 50.4167 8.98652C50.0933 9.37169 49.7163 9.64853 49.2859 9.81704C48.8554 9.98555 48.3909 10.0722 47.8899 10.0722C47.5665 10.0722 47.2576 10.0361 46.9658 9.96148C46.674 9.88926 46.421 9.77371 46.2095 9.61723C45.9954 9.46076 45.8276 9.25854 45.7036 9.00578C45.5796 8.75301 45.5164 8.44969 45.5164 8.09099C45.5164 7.68897 45.5869 7.35917 45.7255 7.10159C45.8641 6.844 46.0465 6.63697 46.2727 6.47568C46.4989 6.31439 46.7591 6.19403 47.0509 6.11218C47.3428 6.03033 47.6419 5.96052 47.9459 5.90515C48.2693 5.84015 48.5782 5.79201 48.87 5.76071C49.1618 5.72942 49.4172 5.68368 49.6409 5.62349C49.8622 5.56331 50.0398 5.47665 50.1687 5.3635C50.2976 5.24795 50.3632 5.08185 50.3632 4.86278C50.3632 4.60761 50.3146 4.40058 50.2173 4.2441C50.12 4.08762 49.996 3.96967 49.8428 3.88782C49.6896 3.80597 49.5193 3.7506 49.3297 3.72171C49.14 3.69523 48.9527 3.68079 48.7679 3.68079C48.2693 3.68079 47.851 3.77467 47.5179 3.96244C47.1847 4.15021 47.0047 4.50409 46.9755 5.02648H45.796C45.8155 4.58594 45.9079 4.21521 46.0733 3.9143C46.2411 3.61098 46.4624 3.36784 46.7396 3.18007C47.0169 2.99229 47.333 2.85748 47.6905 2.77564C48.0456 2.69379 48.4274 2.65286 48.836 2.65286C49.1594 2.65286 49.4804 2.67694 49.8015 2.72267C50.12 2.76841 50.4094 2.8623 50.6697 3.00433C50.9274 3.14636 51.1366 3.34376 51.2947 3.60135C51.4527 3.85652 51.5306 4.19114 51.5306 4.60279V8.24988C51.5306 8.52431 51.5476 8.72412 51.5792 8.85411C51.6108 8.9817 51.7203 9.0467 51.9051 9.0467C52.0072 9.0467 52.1264 9.02744 52.265 8.99133V9.89889L52.2626 9.89408ZM50.3462 6.2518C50.1979 6.36013 50.0033 6.44198 49.7625 6.49013C49.5218 6.54068 49.2689 6.58161 49.0062 6.6129C48.7436 6.6442 48.476 6.68031 48.2085 6.72123C47.941 6.76216 47.7002 6.82715 47.4862 6.91863C47.2722 7.01011 47.0996 7.1401 46.9658 7.30862C46.832 7.47713 46.7639 7.70823 46.7639 7.99952C46.7639 8.1921 46.8029 8.35339 46.8831 8.4858C46.9609 8.6182 47.0631 8.72412 47.1895 8.80838C47.3136 8.89022 47.4595 8.95041 47.6273 8.98652C47.7927 9.02263 47.9702 9.04189 48.155 9.04189C48.5441 9.04189 48.8773 8.98892 49.1546 8.88541C49.4318 8.77949 49.658 8.64949 49.8355 8.4882C50.0106 8.32932 50.1419 8.15599 50.2246 7.96822C50.3073 7.78045 50.3486 7.60472 50.3486 7.44102V6.2518H50.3462Z" fill="white"/>
</g>
</mask>
<g mask="url(#mask2_3264_1702)">
<g id="Group_9">
<path id="Vector_20" d="M51.7057 3.40155C51.7057 3.40155 50.4605 5.07464 49.1035 5.33944C47.7465 5.60425 46.8564 5.75832 46.8564 5.75832L47.5009 7.1016C47.5009 7.1016 48.5685 6.94753 49.0792 6.7718C49.5899 6.59606 51.2582 6.37459 51.7932 5.80405L51.7033 3.40396L51.7057 3.40155Z" fill="white"/>
<path id="Vector_21" d="M52.6614 8.70966C49.4342 8.46893 46.1632 6.74529 49.4804 2.34471C49.5631 2.23398 47.4692 2.29897 47.2819 2.40249C45.565 3.35819 44.5411 5.66922 45.2975 8.59893C45.8325 10.6692 49.4901 10.4839 52.5276 10.1396C52.6468 10.1252 52.7198 8.71207 52.6614 8.70726V8.70966Z" fill="white"/>
<path id="Vector_22" d="M51.9951 7.34233C51.9951 7.34233 47.9434 12.2171 45.3218 5.25037C45.295 5.18056 45.0689 7.47954 45.0762 7.56139C45.1661 8.4858 45.1637 9.15022 46.5669 10.0506C48.9697 11.5912 51.5014 8.35822 51.9951 7.34233Z" fill="white"/>
<path id="Vector_23" d="M46.7226 10.118C46.7226 10.118 46.6034 9.16225 49.191 8.6206C49.191 8.6206 50.3486 7.52046 50.2635 4.33798C50.2635 4.33798 53.0384 6.72845 52.5058 10.0313C52.5058 10.0313 49.8282 11.064 46.7226 10.1204V10.118Z" fill="white"/>
<path id="Vector_24" d="M45.7863 4.12374C46.8807 3.78912 48.4809 3.36784 49.7723 4.01782C50.6162 4.44391 51.4625 6.19885 51.7738 8.53154C51.7835 8.60857 51.8322 4.28503 51.8151 4.23929C51.6619 3.79634 51.533 3.23062 51.0831 2.93934C49.5972 1.974 47.7051 2.38806 46.4794 2.92249C46.4162 2.95137 45.7134 4.1454 45.7839 4.12374H45.7863Z" fill="white"/>
<path id="Vector_25" opacity="0.2" d="M45.582 3.67116C45.582 3.67116 51.229 -0.151663 52.5739 7.55416C52.5739 7.55416 53.1357 3.61098 50.767 2.16418C48.3982 0.717379 46.0076 2.90804 45.582 3.67116Z" fill="white"/>
<path id="Vector_26" opacity="0.2" d="M45.4872 8.5171C45.7377 7.29418 46.4916 5.97256 48.532 5.66924C48.7387 5.63794 48.8554 5.45499 48.8554 5.45499C48.8554 5.45499 47.012 5.58257 46.2994 6.04478C43.9721 7.55658 45.4726 8.5845 45.4847 8.5171H45.4872Z" fill="white"/>
<path id="Vector_27" opacity="0.3" d="M50.283 6.43958C50.283 6.43958 50.5432 10.2287 46.9026 7.95859C46.9026 7.95859 46.9901 9.68945 49.0719 9.21521C50.6186 8.86134 50.4192 6.90419 50.2854 6.43958H50.283Z" fill="white"/>
</g>
</g>
</g>
</g>
<g id="Group_10">
<path id="Vector_28" d="M39.704 2.81656V3.94318H39.7307C40.222 3.08136 40.9978 2.65045 42.063 2.65045C42.5348 2.65045 42.9288 2.71545 43.2425 2.84304C43.5562 2.97063 43.8116 3.15117 44.0061 3.37987C44.2007 3.60856 44.3369 3.88059 44.4147 4.19836C44.4925 4.51372 44.5338 4.86518 44.5338 5.25036V9.92296H43.3543V5.11314C43.3543 4.6726 43.2255 4.32595 42.9652 4.06836C42.705 3.81319 42.35 3.68319 41.8952 3.68319C41.5352 3.68319 41.2215 3.73856 40.9589 3.8493C40.6962 3.96003 40.4749 4.1141 40.2998 4.31632C40.1247 4.51853 39.991 4.75445 39.9034 5.02407C39.8159 5.29369 39.7721 5.58979 39.7721 5.90996V9.92296H38.5926V2.81656H39.704Z" fill="white"/>
<g id="Clip path group_4">
<mask id="mask3_3264_1702" style="mask-type:luminance" maskUnits="userSpaceOnUse" x="38" y="2" width="7" height="8">
<g id="clippath-3">
<path id="Vector_29" d="M39.704 2.81656V3.94318H39.7307C40.222 3.08136 40.9978 2.65045 42.063 2.65045C42.5348 2.65045 42.9288 2.71545 43.2425 2.84304C43.5562 2.97063 43.8116 3.15117 44.0061 3.37987C44.2007 3.60856 44.3369 3.88059 44.4147 4.19836C44.4925 4.51372 44.5338 4.86518 44.5338 5.25036V9.92296H43.3543V5.11314C43.3543 4.6726 43.2255 4.32595 42.9652 4.06836C42.705 3.81319 42.35 3.68319 41.8952 3.68319C41.5352 3.68319 41.2215 3.73856 40.9589 3.8493C40.6962 3.96003 40.4749 4.1141 40.2998 4.31632C40.1247 4.51853 39.991 4.75445 39.9034 5.02407C39.8159 5.29369 39.7721 5.58979 39.7721 5.90996V9.92296H38.5926V2.81656H39.704Z" fill="white"/>
</g>
</mask>
<g mask="url(#mask3_3264_1702)">
<g id="Group_11">
<path id="Vector_30" d="M43.1208 10.1348L44.8427 10.1204V4.16225L42.8655 3.59653L43.1208 10.1348Z" fill="white"/>
<path id="Vector_31" d="M40.1636 10.1709C40.1636 10.1709 40.774 8.18005 42.7366 2.39768C43.206 1.01106 38.2399 2.76359 38.2399 2.76359L38.3299 10.1468L40.166 10.1709H40.1636Z" fill="white"/>
<path id="Vector_32" d="M42.1918 4.08039C42.7147 4.0852 38.5342 2.7684 39.4243 10.4116C39.4243 10.4116 38.8479 11.0448 38.3275 10.1468C38.2983 10.0963 38.308 3.05968 38.3469 3.03561C38.5317 2.92006 38.7409 2.81654 38.9744 2.72747C43.4491 0.994204 45.419 3.69281 45.419 3.69281L42.1918 4.08279V4.08039Z" fill="white"/>
<path id="Vector_33" d="M40.7472 4.52334C40.7472 4.52334 39.9058 5.25516 39.4218 4.2465C38.5707 2.4699 42.2307 2.15213 42.2307 2.15213L44.9132 2.80211L45.0056 9.72555C45.0056 9.72555 43.8893 5.52719 43.7629 5.15406C43.1524 3.35097 40.7302 4.11169 40.7472 4.52575V4.52334Z" fill="white"/>
<path id="Vector_34" opacity="0.1" d="M44.8111 4.30667C43.7824 3.44004 41.4258 2.08472 38.4297 4.39333C38.4078 4.41019 38.398 2.70821 38.4297 2.70099C40.2317 2.19545 42.7804 2.05101 44.6919 2.90561C44.7308 2.92246 44.7381 2.97542 44.76 3.01153C44.9983 3.3967 44.8403 4.32834 44.8111 4.30426V4.30667Z" fill="white"/>
</g>
</g>
</g>
</g>
<g id="Group_12">
<path id="Vector_35" d="M37.2647 2.81657V9.92057H36.0852V2.81657H37.2647ZM37.4106 0.876275C37.4106 1.27589 37.0823 1.60088 36.6786 1.60088C36.2749 1.60088 35.9466 1.27589 35.9466 0.876275C35.9466 0.47666 36.2749 0.151672 36.6786 0.151672C37.0823 0.151672 37.4106 0.47666 37.4106 0.876275Z" fill="white"/>
<g id="Clip path group_5">
<mask id="mask4_3264_1702" style="mask-type:luminance" maskUnits="userSpaceOnUse" x="35" y="0" width="3" height="10">
<g id="clippath-4">
<path id="Vector_36" d="M37.2647 2.81657V9.92057H36.0852V2.81657H37.2647ZM37.4106 0.876275C37.4106 1.27589 37.0823 1.60088 36.6786 1.60088C36.2749 1.60088 35.9466 1.27589 35.9466 0.876275C35.9466 0.47666 36.2749 0.151672 36.6786 0.151672C37.0823 0.151672 37.4106 0.47666 37.4106 0.876275Z" fill="white"/>
</g>
</mask>
<g mask="url(#mask4_3264_1702)">
<g id="Group_13">
<path id="Vector_37" d="M37.5347 -0.238342H35.7205V10.2479H37.5347V-0.238342Z" fill="white"/>
<path id="Vector_38" d="M35.2949 10.1781L36.7224 2.41452L36.9243 2.0125L36.3455 1.70918L36.5862 -0.238342L37.2988 0.129977L37.773 10.1492L35.2949 10.1781Z" fill="white"/>
<path id="Vector_39" d="M35.7691 10.7366L37.3158 3.71207L37.5858 10.4911L35.7691 10.7366Z" fill="white"/>
<path id="Vector_40" opacity="0.2" d="M36.1387 0.27443C36.7029 0.399611 37.2744 0.70534 37.7779 1.31439C37.8022 1.34328 38.1402 0.690897 38.1159 0.657194C37.8751 0.32017 37.559 0.0216621 37.1456 -0.197404C37.0264 -0.259994 36.9072 -0.312955 36.7881 -0.358694C36.6689 -0.402026 36.095 0.264801 36.1387 0.27443Z" fill="white"/>
<path id="Vector_41" opacity="0.15" d="M37.3936 3.52431C37.3766 3.5219 36.2311 2.6312 36.2311 2.6312L37.4714 2.68656L37.3936 3.5219V3.52431Z" fill="white"/>
</g>
</g>
</g>
</g>
<g id="Group_14">
<path id="Vector_42" d="M31.3867 3.84689V2.81656H32.5954V1.75734C32.5954 1.17958 32.7632 0.743858 33.1012 0.44535C33.4393 0.146843 33.933 -0.00241089 34.5799 -0.00241089C34.6917 -0.00241089 34.8182 0.00721838 34.9617 0.0240696C35.1052 0.0433282 35.2316 0.0698087 35.3435 0.105918V1.12181C35.2414 1.0857 35.1295 1.05922 35.0103 1.04718C34.8912 1.03274 34.7793 1.02551 34.6771 1.02551C34.3902 1.02551 34.1689 1.08088 34.0108 1.19162C33.8527 1.30236 33.7749 1.51179 33.7749 1.82474V2.81415H35.1635V3.84448H33.7749V9.91815H32.5954V3.84689H31.3867Z" fill="white"/>
<g id="Clip path group_6">
<mask id="mask5_3264_1702" style="mask-type:luminance" maskUnits="userSpaceOnUse" x="31" y="-1" width="5" height="11">
<g id="clippath-5">
<path id="Vector_43" d="M31.3867 3.84689V2.81656H32.5954V1.75734C32.5954 1.17958 32.7632 0.743858 33.1012 0.44535C33.4393 0.146843 33.933 -0.00241089 34.5799 -0.00241089C34.6917 -0.00241089 34.8182 0.00721838 34.9617 0.0240696C35.1052 0.0433282 35.2316 0.0698087 35.3435 0.105918V1.12181C35.2414 1.0857 35.1295 1.05922 35.0103 1.04718C34.8912 1.03274 34.7793 1.02551 34.6771 1.02551C34.3902 1.02551 34.1689 1.08088 34.0108 1.19162C33.8527 1.30236 33.7749 1.51179 33.7749 1.82474V2.81415H35.1635V3.84448H33.7749V9.91815H32.5954V3.84689H31.3867Z" fill="white"/>
</g>
</mask>
<g mask="url(#mask5_3264_1702)">
<g id="Group_15">
<path id="Vector_44" d="M35.7666 -0.625916H30.6887V10.5561H35.7666V-0.625916Z" fill="white"/>
<path id="Vector_45" opacity="0.36" d="M32.3789 4.02746L32.6002 3.83487C32.6002 3.83487 33.1182 -0.154055 34.5798 -0.19498L32.6002 -0.279236L31.3843 2.29419L31.1727 3.9432L32.3789 4.02746Z" fill="white"/>
<path id="Vector_46" opacity="0.2" d="M35.9733 0.105933C35.9733 0.105933 33.7432 -0.108318 33.7359 1.62736C33.7359 1.62736 32.875 8.90228 32.8434 9.95668C32.8118 11.0111 32.8045 10.26 32.8045 10.26L34.2758 10.1083L34.4923 7.98749L34.1859 3.96727L34.5433 4.02986L36.0852 1.10256L35.9709 0.105933H35.9733Z" fill="white"/>
<path id="Vector_47" opacity="0.15" d="M35.521 3.83726C35.4967 3.83244 33.7019 2.44342 33.7019 2.44342L35.6426 2.53249L35.521 3.83967V3.83726Z" fill="white"/>
<path id="Vector_48" d="M33.9086 10C33.8989 10.0241 33.1255 10.1757 33.1255 10.1757L33.8989 5.48148L33.9062 10H33.9086Z" fill="white"/>
<path id="Vector_49" opacity="0.2" d="M32.7754 0.565718C33.5998 0.368318 34.5507 0.426094 35.6013 0.965333C35.6499 0.989406 35.6937 -0.175736 35.6402 -0.209438C35.11 -0.532019 34.5045 -0.753492 33.8187 -0.789602C33.6192 -0.799231 33.4271 -0.796824 33.2447 -0.78238C33.0623 -0.767936 32.7146 0.577755 32.7778 0.563311L32.7754 0.565718Z" fill="white"/>
</g>
</g>
</g>
</g>
<g id="Group_16">
<path id="Vector_50" d="M64.3494 4.06353C64.0527 3.81558 63.6539 3.69281 63.1553 3.69281C62.7297 3.69281 62.3722 3.76984 62.0852 3.92632C61.7983 4.08279 61.5697 4.28742 61.397 4.545C61.2268 4.80258 61.1027 5.09627 61.0298 5.43089C60.9544 5.76551 60.9179 6.11216 60.9179 6.46845C60.9179 6.79825 60.9568 7.11842 61.0371 7.43137C61.1149 7.74192 61.2389 8.02117 61.4043 8.2619C61.5721 8.50504 61.7885 8.70003 62.0561 8.84688C62.3236 8.99372 62.6446 9.06594 63.0142 9.06594C63.5979 9.06594 64.0527 8.91428 64.381 8.61337C64.7093 8.31004 64.9112 7.88395 64.9841 7.33508H66.1928C66.0639 8.21375 65.7332 8.89261 65.2006 9.36926C64.668 9.84591 63.9433 10.0842 63.0264 10.0842C62.4792 10.0842 61.9953 9.99757 61.5745 9.82425C61.1538 9.65092 60.8012 9.40297 60.5191 9.08279C60.237 8.76262 60.023 8.37986 59.8795 7.9345C59.736 7.48915 59.663 7.00287 59.663 6.47085C59.663 5.93884 59.7336 5.44293 59.8722 4.97832C60.0108 4.51611 60.2224 4.11168 60.5045 3.76984C60.7866 3.4256 61.1417 3.15598 61.5672 2.95858C61.9928 2.76118 62.4889 2.66248 63.0532 2.66248C63.4593 2.66248 63.8411 2.71062 64.1986 2.80691C64.5561 2.90321 64.8698 3.05246 65.1422 3.25468C65.4146 3.45689 65.6408 3.70966 65.8159 4.0178C65.991 4.32593 66.1028 4.68944 66.149 5.11072H64.9282C64.8358 4.66296 64.6412 4.3139 64.3445 4.06594L64.3494 4.06353Z" fill="white"/>
<g id="Clip path group_7">
<mask id="mask6_3264_1702" style="mask-type:luminance" maskUnits="userSpaceOnUse" x="59" y="2" width="8" height="9">
<g id="clippath-6">
<path id="Vector_51" d="M64.3494 4.06353C64.0527 3.81558 63.6539 3.69281 63.1553 3.69281C62.7297 3.69281 62.3722 3.76984 62.0852 3.92632C61.7983 4.08279 61.5697 4.28742 61.397 4.545C61.2268 4.80258 61.1027 5.09627 61.0298 5.43089C60.9544 5.76551 60.9179 6.11216 60.9179 6.46845C60.9179 6.79825 60.9568 7.11842 61.0371 7.43137C61.1149 7.74192 61.2389 8.02117 61.4043 8.2619C61.5721 8.50504 61.7885 8.70003 62.0561 8.84688C62.3236 8.99372 62.6446 9.06594 63.0142 9.06594C63.5979 9.06594 64.0527 8.91428 64.381 8.61337C64.7093 8.31004 64.9112 7.88395 64.9841 7.33508H66.1928C66.0639 8.21375 65.7332 8.89261 65.2006 9.36926C64.668 9.84591 63.9433 10.0842 63.0264 10.0842C62.4792 10.0842 61.9953 9.99757 61.5745 9.82425C61.1538 9.65092 60.8012 9.40297 60.5191 9.08279C60.237 8.76262 60.023 8.37986 59.8795 7.9345C59.736 7.48915 59.663 7.00287 59.663 6.47085C59.663 5.93884 59.7336 5.44293 59.8722 4.97832C60.0108 4.51611 60.2224 4.11168 60.5045 3.76984C60.7866 3.4256 61.1417 3.15598 61.5672 2.95858C61.9928 2.76118 62.4889 2.66248 63.0532 2.66248C63.4593 2.66248 63.8411 2.71062 64.1986 2.80691C64.5561 2.90321 64.8698 3.05246 65.1422 3.25468C65.4146 3.45689 65.6408 3.70966 65.8159 4.0178C65.991 4.32593 66.1028 4.68944 66.149 5.11072H64.9282C64.8358 4.66296 64.6412 4.3139 64.3445 4.06594L64.3494 4.06353Z" fill="white"/>
</g>
</mask>
<g mask="url(#mask6_3264_1702)">
<g id="Group_17">
<path id="Vector_52" d="M61.8639 10.3129L65.862 10.2503L66.4311 7.00769L64.8625 7.03899L64.4636 7.85988H61.4091L61.8639 10.3129Z" fill="white"/>
<path id="Vector_53" d="M64.7774 10.2816C64.7774 10.2816 58.7121 8.49539 62.1971 3.68798C63.3936 2.03656 62.1241 2.26525 61.0273 3.14633C59.3225 4.51369 59.218 6.28548 59.218 6.28548L59.8211 8.81798L61.7326 10.3057L64.7774 10.284V10.2816Z" fill="white"/>
<path id="Vector_54" opacity="0.1" d="M63.8776 8.47614C63.8776 8.47614 62.4743 8.35818 62.5132 8.41836C63.0702 9.25852 64.0794 9.63406 65.9107 8.4954C66.0542 8.40632 65.2857 7.85986 65.2857 7.85986C65.2857 7.85986 64.4077 7.85986 63.8776 8.47614Z" fill="white"/>
<path id="Vector_55" d="M64.2181 4.57388C64.2181 4.57388 58.4714 2.42656 60.4802 9.84832C60.4802 9.84832 57.6202 4.68703 60.6261 3.01876C63.6709 1.32882 66.0712 3.08616 66.0712 3.08616L64.2181 4.57388Z" fill="white"/>
<path id="Vector_56" d="M64.4077 4.43426C64.4077 4.43426 63.3693 4.27537 63.2015 4.02742C62.7856 3.41355 62.0804 2.8695 61.1781 3.20171C60.5409 3.43522 61.0589 2.97061 61.4991 2.46507C62.3041 1.54066 64.7312 2.53729 64.7312 2.53729L66.5989 3.90705L66.3533 5.36107L64.7993 5.25515L64.4077 4.43185V4.43426Z" fill="white"/>
<path id="Vector_57" opacity="0.1" d="M66.4919 4.26816C65.4632 3.35819 62.81 1.68511 59.5755 4.81221C59.432 4.94943 60.0619 3.68799 60.1713 3.60615C62.0706 2.19786 64.6826 1.32641 66.7619 3.95761" fill="white"/>
</g>
</g>
</g>
</g>
</g>
<g id="Group_18">
<g id="Group_19">
<path id="Vector_58" d="M10.365 8.21618C10.6617 8.50024 11.0848 8.64228 11.6393 8.64228C12.0357 8.64228 12.3786 8.54358 12.6656 8.34858C12.9526 8.15118 13.1277 7.94415 13.1909 7.72509H14.9224C14.6452 8.57487 14.2196 9.18392 13.6481 9.54983C13.0742 9.91575 12.3835 10.0987 11.5688 10.0987C11.0046 10.0987 10.4963 10.0096 10.044 9.83149C9.59161 9.65335 9.20736 9.39817 8.89364 9.07078C8.57992 8.74098 8.33672 8.34858 8.16649 7.89119C7.99625 7.4338 7.91113 6.93067 7.91113 6.3818C7.91113 5.83294 7.99868 5.35869 8.17378 4.9013C8.34888 4.44391 8.59937 4.04911 8.92282 3.7145C9.24627 3.37988 9.63052 3.11748 10.0804 2.92489C10.5279 2.73231 11.024 2.63602 11.5712 2.63602C12.1816 2.63602 12.7118 2.75157 13.1641 2.98508C13.6165 3.21859 13.9886 3.53154 14.2804 3.92393C14.5722 4.31632 14.7814 4.76649 14.9103 5.26722C15.0392 5.77034 15.0854 6.29514 15.0489 6.84401H9.88101C9.90776 7.47473 10.0707 7.93212 10.365 8.21618ZM12.5878 4.48484C12.3519 4.22966 11.9944 4.10207 11.5129 4.10207C11.1991 4.10207 10.9389 4.15503 10.7298 4.25855C10.5206 4.36447 10.3552 4.49447 10.2312 4.64853C10.1072 4.80501 10.0196 4.96871 9.96856 5.14204C9.91749 5.31536 9.88831 5.47184 9.87858 5.60905H13.079C12.9866 5.11555 12.8237 4.74001 12.5878 4.48484Z" fill="white"/>
<path id="Vector_59" d="M19.8812 2.82619V4.12855H18.4391V7.64083C18.4391 7.97063 18.495 8.1897 18.6044 8.29803C18.7163 8.40876 18.9376 8.46173 19.2684 8.46173C19.3802 8.46173 19.4848 8.45691 19.587 8.44728C19.6891 8.43765 19.7864 8.42321 19.8788 8.40636V9.91575C19.7134 9.94463 19.5286 9.96148 19.3243 9.97111C19.12 9.98074 18.923 9.98556 18.7285 9.98556C18.4245 9.98556 18.1351 9.96389 17.8627 9.92297C17.5903 9.88204 17.3496 9.8026 17.1428 9.68224C16.9361 9.56428 16.7708 9.39336 16.6516 9.17429C16.5324 8.95523 16.4716 8.66635 16.4716 8.31006V4.12614H15.28V2.82379H16.4716V0.700531H18.4391V2.82619H19.8812Z" fill="white"/>
<path id="Vector_60" d="M22.909 2.8262V9.91816H20.9415V2.8262H22.909Z" fill="white"/>
<path id="Vector_61" d="M26.1021 0.125183V5.37795L28.5827 2.82619H30.9101L28.2082 5.43332L31.2141 9.91815H28.8307L26.8633 6.75012L26.1021 7.47713V9.91815H24.1346V0.125183H26.1021Z" fill="white"/>
<path id="Vector_62" d="M5.1533 0.154083V3.41359C4.62557 3.02842 3.99326 2.80213 3.30988 2.80213C1.48106 2.80454 0 4.41985 0 6.4107C0 8.40156 1.48106 10.0169 3.30988 10.0169C3.99326 10.0169 4.62557 9.79058 5.1533 9.40541V9.91817H7.07211V0.154083H5.1533ZM3.34393 8.481C2.42222 8.481 1.67561 7.55418 1.67561 6.4107C1.67561 5.26723 2.42222 4.34041 3.34393 4.34041C4.26564 4.34041 5.00982 5.26723 5.00982 6.4107C5.00982 7.55418 4.26321 8.481 3.34393 8.481Z" fill="white"/>
</g>
<path id="Vector_63" d="M22.9576 1.04719C22.9576 1.6105 22.4955 2.0679 21.9265 2.0679C21.3574 2.0679 20.8953 1.6105 20.8953 1.04719C20.8953 0.48388 21.355 0.0264893 21.9265 0.0264893C22.498 0.0264893 22.9576 0.48388 22.9576 1.04719Z" fill="white"/>
</g>
</g>
<g id="Group_20">
<path id="Vector_64" d="M0 34.2248V18.6038H8.43157C10.6106 18.6038 12.2181 18.9865 13.2566 19.7521C14.2926 20.5176 14.813 21.4974 14.813 22.6866C14.813 23.4762 14.5917 24.1791 14.1491 24.7954C13.7065 25.4141 13.062 25.9003 12.2205 26.2566C11.3791 26.6129 10.3406 26.7911 9.11008 26.7911L9.55999 25.585C10.793 25.585 11.8558 25.7559 12.7507 26.0977C13.6457 26.4396 14.3363 26.9355 14.8252 27.5831C15.314 28.2306 15.5572 29.0082 15.5572 29.9157C15.5572 31.2687 14.9905 32.3255 13.8548 33.0838C12.7191 33.8421 11.0629 34.2224 8.88391 34.2224H0V34.2248ZM5.23112 30.5417H8.43157C9.01767 30.5417 9.45785 30.4381 9.74969 30.2287C10.044 30.0193 10.1899 29.7159 10.1899 29.3139C10.1899 28.9119 10.044 28.6086 9.74969 28.3991C9.45542 28.1897 9.01767 28.0862 8.43157 28.0862H4.86876V24.6052H7.70928C8.30997 24.6052 8.75015 24.5041 9.0274 24.3043C9.30464 24.1045 9.44326 23.818 9.44326 23.4449C9.44326 23.0717 9.30464 22.7684 9.0274 22.5734C8.75015 22.3808 8.30997 22.2821 7.70928 22.2821H5.22869V30.5392L5.23112 30.5417Z" fill="white"/>
<path id="Vector_65" d="M24.9785 34.5811C22.5587 34.5811 20.6715 33.9336 19.3194 32.6384C17.9672 31.3433 17.2911 29.5282 17.2911 27.1931V18.6013H22.6122V27.0366C22.6122 28.2282 22.8311 29.0708 23.2664 29.5691C23.7018 30.0674 24.2879 30.3178 25.0247 30.3178C25.7616 30.3178 26.3672 30.0674 26.7952 29.5691C27.2232 29.0708 27.4372 28.2258 27.4372 27.0366V18.6013H32.6684V27.1931C32.6684 29.5282 31.9923 31.3433 30.6401 32.6384C29.2879 33.9336 27.4008 34.5811 24.981 34.5811H24.9785Z" fill="white"/>
<path id="Vector_66" d="M40.9856 34.5811C39.6627 34.5811 38.3859 34.4319 37.1529 34.1358C35.9199 33.8373 34.9058 33.4521 34.1081 32.9755L35.8226 29.1358C36.5741 29.5667 37.4131 29.9133 38.3373 30.1733C39.2614 30.4333 40.1588 30.5633 41.0319 30.5633C41.5426 30.5633 41.9438 30.5296 42.2381 30.4622C42.5324 30.3948 42.7464 30.2985 42.8801 30.1709C43.0163 30.0458 43.082 29.8917 43.082 29.7135C43.082 29.4319 42.9239 29.208 42.6078 29.0443C42.2916 28.8806 41.8757 28.7434 41.3553 28.6302C40.8373 28.5195 40.2682 28.3991 39.6529 28.274C39.0377 28.1488 38.4175 27.9803 37.7925 27.7708C37.1675 27.5614 36.5984 27.287 36.078 26.9451C35.56 26.6033 35.1417 26.1531 34.8255 25.5946C34.5094 25.0361 34.3513 24.3404 34.3513 23.5075C34.3513 22.5397 34.6261 21.6587 35.1733 20.8618C35.7229 20.0674 36.54 19.4295 37.6296 18.9528C38.7191 18.4762 40.0761 18.2379 41.6982 18.2379C42.7658 18.2379 43.8164 18.3486 44.8549 18.5725C45.8909 18.7964 46.8248 19.1382 47.6516 19.598L46.0514 23.4136C45.2707 23.026 44.5144 22.7371 43.7848 22.5421C43.0552 22.3496 42.3451 22.2509 41.6544 22.2509C41.1437 22.2509 40.7376 22.2966 40.436 22.3857C40.1345 22.4747 39.9205 22.5951 39.794 22.7419C39.6651 22.8912 39.6019 23.0549 39.6019 23.233C39.6019 23.5003 39.7599 23.7121 40.0761 23.8686C40.3922 24.025 40.8081 24.155 41.3286 24.2586C41.8466 24.3621 42.4181 24.4752 43.0431 24.5932C43.6657 24.7135 44.2858 24.8748 44.9035 25.0843C45.5188 25.2937 46.0879 25.5681 46.6059 25.91C47.1239 26.2518 47.5422 26.6996 47.8583 27.2484C48.1745 27.7997 48.3326 28.4834 48.3326 29.3019C48.3326 30.2552 48.0578 31.129 47.5106 31.9235C46.9609 32.7203 46.1462 33.3582 45.064 33.8421C43.9818 34.326 42.6223 34.5667 40.9832 34.5667L40.9856 34.5811Z" fill="white"/>
<path id="Vector_67" d="M49.9133 34.2248V18.6038H55.2344V34.2248H49.9133Z" fill="white"/>
<path id="Vector_68" d="M57.805 34.2248V18.6038H62.1776L70.2031 28.1103H68.1748V18.6038H73.3597V34.2248H68.9871L60.9617 24.7183H62.9899V34.2248H57.805Z" fill="white"/>
<path id="Vector_69" d="M81.1614 30.2528H89.0531V34.2248H75.9327V18.6038H88.7613V22.5758H81.1639V30.2528H81.1614ZM80.8015 24.4054H87.8347V28.1993H80.8015V24.4054Z" fill="white"/>
<path id="Vector_70" d="M96.9886 34.5811C95.6656 34.5811 94.3888 34.4319 93.1558 34.1358C91.9228 33.8373 90.9087 33.4521 90.111 32.9755L91.8255 29.1358C92.577 29.5667 93.416 29.9133 94.3402 30.1733C95.2643 30.4333 96.1617 30.5633 97.0348 30.5633C97.5455 30.5633 97.9468 30.5296 98.241 30.4622C98.5353 30.3948 98.7493 30.2985 98.8831 30.1709C99.0193 30.0458 99.0849 29.8917 99.0849 29.7135C99.0849 29.4319 98.9268 29.208 98.6107 29.0443C98.2945 28.8806 97.8787 28.7434 97.3582 28.6302C96.8402 28.5195 96.2711 28.3991 95.6559 28.274C95.0406 28.1488 94.4204 27.9803 93.7954 27.7708C93.1704 27.5614 92.6013 27.287 92.0809 26.9451C91.5629 26.6033 91.1446 26.1531 90.8285 25.5946C90.5123 25.0361 90.3542 24.3404 90.3542 23.5075C90.3542 22.5397 90.629 21.6587 91.1762 20.8618C91.7258 20.0674 92.543 19.4295 93.6325 18.9528C94.722 18.4762 96.079 18.2379 97.7011 18.2379C98.7688 18.2379 99.8194 18.3486 100.858 18.5725C101.894 18.7964 102.828 19.1382 103.655 19.598L102.054 23.4136C101.274 23.026 100.517 22.7371 99.7878 22.5421C99.0582 22.3496 98.348 22.2509 97.6574 22.2509C97.1467 22.2509 96.7405 22.2966 96.439 22.3857C96.1374 22.4747 95.9234 22.5951 95.7969 22.7419C95.668 22.8912 95.6048 23.0549 95.6048 23.233C95.6048 23.5003 95.7629 23.7121 96.079 23.8686C96.3952 24.025 96.811 24.155 97.3315 24.2586C97.8495 24.3621 98.421 24.4752 99.046 24.5932C99.6686 24.7135 100.289 24.8748 100.906 25.0843C101.522 25.2937 102.091 25.5681 102.609 25.91C103.127 26.2518 103.545 26.6996 103.861 27.2484C104.177 27.7997 104.335 28.4834 104.335 29.3019C104.335 30.2552 104.061 31.129 103.514 31.9235C102.964 32.7203 102.149 33.3582 101.067 33.8421C99.9847 34.326 98.6253 34.5667 96.9861 34.5667L96.9886 34.5811Z" fill="white"/>
<path id="Vector_71" d="M111.799 34.5811C110.476 34.5811 109.199 34.4319 107.966 34.1358C106.733 33.8373 105.719 33.4521 104.922 32.9755L106.636 29.1358C107.388 29.5667 108.227 29.9133 109.151 30.1733C110.075 30.4333 110.972 30.5633 111.845 30.5633C112.356 30.5633 112.76 30.5296 113.052 30.4622C113.346 30.3948 113.56 30.2985 113.694 30.1709C113.83 30.0458 113.898 29.8917 113.898 29.7135C113.898 29.4319 113.74 29.208 113.424 29.0443C113.108 28.8806 112.692 28.7434 112.174 28.6302C111.656 28.5195 111.087 28.3991 110.471 28.274C109.856 28.1488 109.236 27.9803 108.611 27.7708C107.986 27.5614 107.417 27.287 106.896 26.9451C106.378 26.6033 105.96 26.1531 105.644 25.5946C105.328 25.0361 105.17 24.3404 105.17 23.5075C105.17 22.5397 105.444 21.6587 105.992 20.8618C106.541 20.0674 107.358 19.4295 108.448 18.9528C109.537 18.4762 110.895 18.2379 112.517 18.2379C113.584 18.2379 114.635 18.3486 115.673 18.5725C116.712 18.7964 117.643 19.1382 118.47 19.598L116.87 23.4136C116.089 23.026 115.333 22.7371 114.603 22.5421C113.874 22.3496 113.164 22.2509 112.473 22.2509C111.962 22.2509 111.556 22.2966 111.254 22.3857C110.953 22.4747 110.739 22.5951 110.612 22.7419C110.483 22.8912 110.42 23.0549 110.42 23.233C110.42 23.5003 110.578 23.7121 110.894 23.8686C111.211 24.025 111.627 24.155 112.147 24.2586C112.665 24.3621 113.236 24.4752 113.859 24.5932C114.482 24.7135 115.102 24.8748 115.719 25.0843C116.335 25.2937 116.904 25.5681 117.422 25.91C117.94 26.2518 118.358 26.6996 118.672 27.2484C118.988 27.7997 119.146 28.4834 119.146 29.3019C119.146 30.2552 118.871 31.129 118.324 31.9235C117.774 32.7203 116.96 33.3582 115.878 33.8421C114.795 34.326 113.436 34.5667 111.797 34.5667L111.799 34.5811Z" fill="white"/>
<path id="Vector_72" d="M127.49 34.2248V18.6038H135.088C136.561 18.6038 137.833 18.8421 138.908 19.3187C139.983 19.7954 140.812 20.4767 141.398 21.3601C141.985 22.246 142.279 23.2908 142.279 24.4945C142.279 25.6981 141.985 26.7405 141.398 27.6192C140.812 28.4978 139.981 29.1767 138.908 29.6606C137.833 30.1444 136.559 30.3852 135.088 30.3852H130.442L132.809 28.1319V34.2248H127.488H127.49ZM132.811 28.7121L130.445 26.324H134.752C135.489 26.324 136.034 26.1603 136.386 25.8329C136.739 25.5055 136.916 25.0602 136.916 24.4945C136.916 23.9287 136.739 23.4834 136.386 23.156C136.034 22.8286 135.489 22.6649 134.752 22.6649H130.445L132.811 20.2768V28.7121Z" fill="white"/>
<path id="Vector_73" d="M144.015 34.2248V18.6038H149.336V30.142H156.459V34.2248H144.015Z" fill="white"/>
<path id="Vector_74" d="M156.438 34.2248L163.337 18.6038H168.568L175.468 34.2248H169.967L164.872 21.1026H166.946L161.851 34.2248H156.44H156.438ZM160.54 31.5022L161.892 27.7082H169.152L170.504 31.5022H160.538H160.54Z" fill="white"/>
<path id="Vector_75" d="M176.324 34.2248V18.6038H180.696L188.722 28.1103H186.693V18.6038H191.878V34.2248H187.503L179.478 24.7183H181.506V34.2248H176.321H176.324Z" fill="white"/>
</g>
<g id="Group_21">
<path id="Vector_76" d="M3.80843 50C3.26611 50 2.7627 49.9109 2.29576 49.7376C1.83126 49.5619 1.42755 49.3115 1.08465 48.9865C0.744177 48.6615 0.476662 48.2812 0.28697 47.843C0.094846 47.4049 0 46.9259 0 46.4011C0 45.8763 0.094846 45.3972 0.28697 44.9591C0.476662 44.5209 0.746609 44.1406 1.09195 43.8156C1.43728 43.4906 1.84099 43.2403 2.30306 43.0645C2.76513 42.8888 3.27097 42.8021 3.82059 42.8021C4.43101 42.8021 4.98063 42.9056 5.47432 43.1151C5.96557 43.3245 6.379 43.6302 6.71461 44.0347L5.66888 44.9904C5.42811 44.7183 5.1606 44.5137 4.8639 44.3789C4.56963 44.2441 4.24862 44.1743 3.89842 44.1743C3.5701 44.1743 3.26854 44.2273 2.99373 44.3332C2.71892 44.4391 2.48059 44.5908 2.28117 44.7906C2.07932 44.9904 1.92367 45.2239 1.81423 45.4959C1.7048 45.7679 1.64886 46.0689 1.64886 46.4011C1.64886 46.7333 1.7048 47.0342 1.81423 47.3062C1.92367 47.5782 2.07932 47.8142 2.28117 48.0116C2.48302 48.2114 2.71892 48.363 2.99373 48.4689C3.26854 48.5749 3.5701 48.6278 3.89842 48.6278C4.24618 48.6278 4.5672 48.5604 4.8639 48.4232C5.15817 48.2884 5.42568 48.079 5.66888 47.8021L6.71461 48.7578C6.379 49.1623 5.96557 49.4704 5.47432 49.6822C4.98307 49.8941 4.42858 50 3.81087 50H3.80843Z" fill="white"/>
<path id="Vector_77" d="M17.1014 50C16.5445 50 16.0314 49.9109 15.5596 49.7304C15.0878 49.5522 14.6792 49.2995 14.3339 48.9745C13.9886 48.6495 13.721 48.2691 13.5289 47.831C13.3368 47.3929 13.2419 46.9162 13.2419 46.3987C13.2419 45.8811 13.3368 45.4044 13.5289 44.9663C13.7186 44.5282 13.9886 44.1478 14.3388 43.8228C14.6865 43.4978 15.0951 43.2451 15.5645 43.0669C16.0338 42.8888 16.5421 42.7973 17.0917 42.7973C17.6413 42.7973 18.1593 42.8864 18.6238 43.0669C19.0884 43.2451 19.4945 43.4978 19.8398 43.8228C20.1852 44.1478 20.4551 44.5282 20.6497 44.9615C20.8442 45.3948 20.9415 45.8739 20.9415 46.3987C20.9415 46.9234 20.8442 47.3953 20.6497 47.8358C20.4551 48.2764 20.1852 48.6591 19.8398 48.9793C19.4945 49.3019 19.0884 49.5522 18.6238 49.7304C18.1593 49.9085 17.6511 50 17.1014 50ZM17.0917 48.6278C17.4054 48.6278 17.6973 48.5749 17.9599 48.4689C18.225 48.363 18.456 48.2114 18.6579 48.0116C18.8597 47.8117 19.0154 47.5782 19.1248 47.3062C19.2343 47.0342 19.2902 46.7333 19.2902 46.4011C19.2902 46.0688 19.2343 45.7679 19.1248 45.4959C19.0154 45.2239 18.8597 44.988 18.6628 44.7906C18.4658 44.5908 18.2323 44.4391 17.9648 44.3332C17.6973 44.2273 17.4054 44.1743 17.0917 44.1743C16.778 44.1743 16.4862 44.2273 16.2235 44.3332C15.9584 44.4391 15.7274 44.5908 15.5255 44.7906C15.3237 44.9904 15.168 45.2239 15.0586 45.4959C14.9492 45.7679 14.8932 46.0688 14.8932 46.4011C14.8932 46.7333 14.9492 47.027 15.0586 47.3014C15.168 47.5758 15.3237 47.8142 15.5207 48.0116C15.7177 48.2114 15.9511 48.363 16.2187 48.4689C16.4862 48.5749 16.778 48.6278 17.0917 48.6278Z" fill="white"/>
<path id="Vector_78" d="M28.1936 49.8796V42.9177H29.5409L32.5346 47.831H31.8221L34.7672 42.9177H36.1023L36.1218 49.8796H34.5945L34.5848 45.2359H34.8669L32.5152 49.1454H31.7807L29.3804 45.2359H29.7209V49.8796H28.1936Z" fill="white"/>
<path id="Vector_79" d="M43.8164 49.8796V42.9177H46.8612C47.4911 42.9177 48.0334 43.0188 48.4882 43.221C48.943 43.4232 49.2956 43.7121 49.5436 44.0924C49.7917 44.4728 49.9157 44.9206 49.9157 45.4453C49.9157 45.9701 49.7917 46.4107 49.5436 46.7886C49.2956 47.1666 48.943 47.4579 48.4882 47.6601C48.0334 47.8623 47.4911 47.9634 46.8612 47.9634H44.7211L45.4434 47.2364V49.882H43.8164V49.8796ZM45.4434 47.4121L44.7211 46.6466H46.7712C47.2746 46.6466 47.6492 46.5407 47.8972 46.3288C48.1453 46.117 48.2693 45.8209 48.2693 45.4429C48.2693 45.065 48.1453 44.7593 47.8972 44.5474C47.6492 44.3356 47.2746 44.2297 46.7712 44.2297H44.7211L45.4434 43.4641V47.4121Z" fill="white"/>
<path id="Vector_80" d="M58.717 48.5869H62.5449V49.8796H57.0997V42.9177H62.416V44.2104H58.7194V48.5869H58.717ZM58.5954 45.7222H61.9807V46.9764H58.5954V45.7222Z" fill="white"/>
<path id="Vector_81" d="M71.3266 49.8796V44.2297H69.0771V42.9177H75.2056V44.2297H72.956V49.8796H71.3291H71.3266Z" fill="white"/>
<path id="Vector_82" d="M82.1099 49.8796V42.9177H83.7369V49.8796H82.1099Z" fill="white"/>
<path id="Vector_83" d="M92.8907 49.8796V44.2297H90.6412V42.9177H96.7697V44.2297H94.5201V49.8796H92.8932H92.8907Z" fill="white"/>
<path id="Vector_84" d="M103.672 49.8796V42.9177H105.299V49.8796H103.672Z" fill="white"/>
<path id="Vector_85" d="M116.41 50C115.853 50 115.34 49.9109 114.868 49.7304C114.396 49.5498 113.988 49.2995 113.643 48.9745C113.297 48.6495 113.03 48.2691 112.838 47.831C112.648 47.3929 112.551 46.9162 112.551 46.3987C112.551 45.8811 112.645 45.4044 112.838 44.9663C113.03 44.5282 113.297 44.1478 113.647 43.8228C113.995 43.4978 114.404 43.2451 114.873 43.0669C115.343 42.8888 115.851 42.7973 116.4 42.7973C116.95 42.7973 117.468 42.8864 117.933 43.0669C118.397 43.2451 118.803 43.4978 119.149 43.8228C119.494 44.1478 119.764 44.5282 119.958 44.9615C120.153 45.3948 120.25 45.8739 120.25 46.3987C120.25 46.9234 120.153 47.3953 119.958 47.8358C119.764 48.2764 119.494 48.6591 119.149 48.9793C118.803 49.3019 118.399 49.5522 117.933 49.7304C117.466 49.9085 116.96 50 116.41 50ZM116.4 48.6278C116.714 48.6278 117.006 48.5749 117.269 48.4689C117.531 48.363 117.767 48.2114 117.967 48.0116C118.168 47.8117 118.324 47.5782 118.434 47.3062C118.543 47.0342 118.599 46.7333 118.599 46.4011C118.599 46.0688 118.543 45.7679 118.434 45.4959C118.324 45.2239 118.168 44.988 117.971 44.7906C117.774 44.5908 117.541 44.4391 117.273 44.3332C117.006 44.2273 116.714 44.1743 116.4 44.1743C116.087 44.1743 115.795 44.2273 115.532 44.3332C115.267 44.4391 115.036 44.5908 114.834 44.7906C114.632 44.9904 114.477 45.2239 114.367 45.4959C114.258 45.7679 114.202 46.0688 114.202 46.4011C114.202 46.7333 114.258 47.027 114.367 47.3014C114.477 47.5758 114.632 47.8142 114.829 48.0116C115.026 48.2114 115.26 48.363 115.527 48.4689C115.795 48.5749 116.087 48.6278 116.4 48.6278Z" fill="white"/>
<path id="Vector_86" d="M127.502 49.8796V42.9177H128.85L132.998 47.9297H132.344V42.9177H133.952V49.8796H132.614L128.456 44.8676H129.11V49.8796H127.502Z" fill="white"/>
<path id="Vector_87" d="M150.02 49.8796V48.8348L152.734 46.2975C152.948 46.105 153.106 45.934 153.206 45.78C153.305 45.6283 153.376 45.4887 153.412 45.3635C153.449 45.2383 153.468 45.1228 153.468 45.0144C153.468 44.7352 153.373 44.5233 153.181 44.3717C152.992 44.2224 152.709 44.1478 152.342 44.1478C152.048 44.1478 151.776 44.2032 151.523 44.3163C151.272 44.4295 151.058 44.6052 150.885 44.8435L149.699 44.0876C149.966 43.6904 150.341 43.3751 150.825 43.1415C151.306 42.9104 151.863 42.7925 152.493 42.7925C153.016 42.7925 153.473 42.8767 153.865 43.0452C154.256 43.2138 154.56 43.4521 154.779 43.7554C154.995 44.0611 155.105 44.4246 155.105 44.8483C155.105 45.0746 155.076 45.2985 155.02 45.52C154.964 45.7414 154.85 45.975 154.679 46.2205C154.509 46.466 154.259 46.7405 153.93 47.0462L151.681 49.1454L151.369 48.558H155.338V49.87H150.022L150.02 49.8796Z" fill="white"/>
<path id="Vector_88" d="M165.052 50C164.475 50 163.96 49.858 163.505 49.5763C163.05 49.2947 162.69 48.8854 162.43 48.3486C162.17 47.8117 162.038 47.1618 162.038 46.3987C162.038 45.6355 162.17 44.9856 162.43 44.4487C162.69 43.9119 163.05 43.5026 163.505 43.221C163.96 42.9393 164.475 42.7973 165.052 42.7973C165.628 42.7973 166.151 42.9393 166.603 43.221C167.056 43.5026 167.413 43.9119 167.673 44.4487C167.933 44.9856 168.065 45.6355 168.065 46.3987C168.065 47.1618 167.933 47.8117 167.673 48.3486C167.413 48.8854 167.056 49.2947 166.603 49.5763C166.151 49.858 165.633 50 165.052 50ZM165.052 48.6375C165.326 48.6375 165.565 48.5604 165.769 48.4088C165.973 48.2571 166.134 48.014 166.251 47.6818C166.367 47.3495 166.426 46.9234 166.426 46.3987C166.426 45.8739 166.367 45.4478 166.251 45.1156C166.134 44.7833 165.973 44.5426 165.769 44.3885C165.565 44.2345 165.326 44.1598 165.052 44.1598C164.777 44.1598 164.548 44.2369 164.344 44.3885C164.14 44.5402 163.979 44.7833 163.862 45.1156C163.746 45.4478 163.687 45.8739 163.687 46.3987C163.687 46.9234 163.746 47.3495 163.862 47.6818C163.979 48.014 164.14 48.2547 164.344 48.4088C164.548 48.5604 164.784 48.6375 165.052 48.6375Z" fill="white"/>
<path id="Vector_89" d="M174.787 49.8796V48.8348L177.501 46.2975C177.715 46.105 177.873 45.934 177.973 45.78C178.072 45.6283 178.143 45.4887 178.179 45.3635C178.216 45.2383 178.235 45.1228 178.235 45.0144C178.235 44.7352 178.14 44.5233 177.948 44.3717C177.759 44.2224 177.476 44.1478 177.109 44.1478C176.815 44.1478 176.543 44.2032 176.29 44.3163C176.039 44.4295 175.825 44.6052 175.652 44.8435L174.466 44.0876C174.733 43.6904 175.108 43.3751 175.592 43.1415C176.073 42.9104 176.63 42.7925 177.26 42.7925C177.783 42.7925 178.24 42.8767 178.632 43.0452C179.023 43.2138 179.327 43.4521 179.546 43.7554C179.762 44.0611 179.872 44.4246 179.872 44.8483C179.872 45.0746 179.843 45.2985 179.787 45.52C179.731 45.7414 179.617 45.975 179.446 46.2205C179.276 46.466 179.026 46.7405 178.697 47.0462L176.448 49.1454L176.136 48.558H180.105V49.87H174.789L174.787 49.8796Z" fill="white"/>
<path id="Vector_90" d="M189.084 50C188.595 50 188.109 49.935 187.627 49.805C187.146 49.675 186.737 49.4921 186.402 49.2537L187.034 48.0212C187.301 48.2138 187.613 48.3654 187.968 48.4786C188.323 48.5917 188.68 48.6471 189.043 48.6471C189.451 48.6471 189.772 48.5676 190.008 48.4088C190.242 48.2499 190.361 48.0308 190.361 47.7516C190.361 47.4723 190.256 47.2773 190.05 47.1257C189.843 46.974 189.507 46.897 189.045 46.897H188.301V45.8329L190.261 43.635L190.441 44.2128H186.754V42.9201H191.677V43.9649L189.726 46.1627L188.902 45.6957H189.373C190.237 45.6957 190.891 45.8883 191.334 46.2735C191.776 46.6586 191.998 47.1521 191.998 47.7564C191.998 48.1488 191.893 48.5147 191.686 48.8565C191.48 49.1984 191.161 49.4752 190.733 49.687C190.305 49.8989 189.755 50.0048 189.084 50.0048V50Z" fill="white"/>
</g>
</g>
</g>
</g>
<defs>
<clipPath id="clip0_3264_1702">
<rect width="192" height="50" fill="white"/>
</clipPath>
</defs>
</svg>
